<?xml version="1.0" standalone="no"?>
<!DOCTYPE svg PUBLIC "-//W3C//DTD SVG 20010904//EN"
 "http://www.w3.org/TR/2001/REC-SVG-20010904/DTD/svg10.dtd">
<svg version="1.0" xmlns="http://www.w3.org/2000/svg"
 width="500.000000pt" height="500.000000pt" viewBox="0 0 500.000000 500.000000"
 preserveAspectRatio="xMidYMid meet">

<g transform="translate(0.000000,500.000000) scale(0.100000,-0.100000)"
fill="#000000" stroke="none">
<path d="M2930 2584 l0 -546 -29 -29 -29 -29 -151 0 -151 0 0 -50 0 -50 625 0
625 0 0 625 0 625 -445 0 -445 0 0 -546z m508 357 c59 -12 82 -35 82 -83 0
-28 -7 -45 -24 -62 -20 -18 -26 -34 -28 -80 l-3 -58 -100 0 -100 0 -3 58 c-2
43 -9 64 -28 86 -26 32 -30 58 -12 91 16 32 39 46 73 47 17 1 39 5 50 10 11 5
27 6 35 4 8 -3 34 -9 58 -13z m160 -401 c3 -7 -70 -10 -222 -10 -199 0 -239 4
-222 21 10 9 441 -1 444 -11z m131 -86 l40 -16 -17 -34 c-11 -25 -20 -33 -31
-28 -34 15 -83 16 -92 3 -15 -23 -11 -28 50 -58 95 -48 120 -96 85 -162 -33
-65 -167 -79 -237 -25 -17 13 -17 15 0 45 20 35 27 36 63 16 33 -19 74 -19 90
0 17 20 0 40 -57 67 -77 36 -100 86 -68 148 29 57 99 74 174 44z m-579 -9 c37
-19 50 -43 50 -95 0 -34 -6 -48 -34 -76 -30 -30 -40 -34 -85 -34 l-51 0 0 -65
0 -65 -40 0 -40 0 0 175 0 175 85 0 c57 0 96 -5 115 -15z m310 -20 l0 -35 -60
0 -60 0 0 -35 0 -35 60 0 60 0 0 -35 0 -35 -60 0 -60 0 0 -35 0 -35 60 0 60 0
0 -35 0 -35 -100 0 -100 0 0 175 0 175 100 0 100 0 0 -35z"/>
<path d="M3037 2393 c-10 -9 -9 -81 1 -87 5 -3 22 -2 38 3 23 6 30 14 32 39 3
27 -1 34 -23 42 -31 12 -39 12 -48 3z"/>
<path d="M1515 2958 c-3 -11 -35 -358 -35 -380 0 -5 20 -8 44 -8 l44 0 7 115
c4 63 10 115 14 115 4 0 22 -48 41 -106 19 -58 40 -110 47 -115 30 -25 46 -4
87 111 l41 115 7 -50 c4 -27 10 -80 14 -117 l6 -68 44 0 c41 0 44 2 40 23 -3
12 -10 85 -16 162 -6 77 -13 157 -16 178 l-6 38 -46 -3 -46 -3 -41 -107 c-23
-59 -43 -109 -46 -112 -2 -3 -24 47 -48 110 l-43 114 -45 0 c-26 0 -45 -5 -48
-12z"/>
<path d="M2000 2798 c-42 -29 -60 -61 -60 -112 0 -31 7 -45 39 -77 37 -37 42
-39 102 -39 100 0 148 42 149 128 0 34 -6 49 -34 79 -31 34 -39 37 -97 41 -55
3 -69 0 -99 -20z m130 -63 c17 -21 16 -64 -3 -82 -18 -19 -61 -20 -82 -3 -18
15 -20 71 -3 88 17 17 73 15 88 -3z"/>
<path d="M2280 2695 l0 -125 40 0 40 0 0 73 c0 91 12 111 62 105 33 -3 38 -1
52 28 8 18 12 35 9 38 -12 12 -79 6 -101 -10 -20 -14 -22 -14 -22 0 0 12 -10
16 -40 16 l-40 0 0 -125z"/>
<path d="M2542 2786 c-34 -32 -37 -38 -37 -91 0 -53 3 -59 37 -91 34 -31 43
-34 97 -34 50 0 65 4 91 26 l31 27 -28 17 c-25 15 -30 15 -55 1 -32 -18 -81
-6 -86 22 -3 15 6 17 81 17 46 0 86 2 89 6 13 13 -13 81 -42 107 -25 22 -39
27 -85 27 -49 0 -60 -4 -93 -34z m126 -28 c21 -21 13 -28 -33 -28 -25 0 -45 4
-45 8 0 15 24 32 45 32 12 0 26 -5 33 -12z"/>
<path d="M2540 2458 c-76 -21 -140 -100 -140 -173 0 -72 65 -153 141 -176 40
-11 120 -3 145 15 16 12 16 17 4 45 -9 24 -17 30 -29 25 -87 -38 -171 7 -171
91 0 84 84 129 171 91 12 -5 20 1 29 24 16 38 8 48 -46 61 -47 10 -59 10 -104
-3z"/>
<path d="M1820 2286 l0 -176 41 0 41 0 -4 65 c-1 36 -1 65 2 65 3 0 28 -29 55
-65 48 -65 49 -65 98 -65 47 0 49 1 35 18 -8 9 -34 40 -57 69 l-43 52 33 29
c27 24 32 36 33 75 1 38 -4 51 -27 74 -25 26 -35 28 -117 31 l-90 4 0 -176z
m131 104 c42 -23 16 -90 -35 -90 -12 0 -16 11 -16 50 0 53 10 61 51 40z"/>
<path d="M2150 2285 l0 -175 101 0 100 0 -3 33 c-3 32 -3 32 -65 35 l-63 3 0
34 0 35 60 0 60 0 0 35 0 35 -60 0 -60 0 0 35 0 34 63 3 c62 3 62 3 65 36 l3
32 -100 0 -101 0 0 -175z"/>
<path d="M2760 2285 l0 -175 40 0 40 0 0 175 0 175 -40 0 -40 0 0 -175z"/>
</g>
</svg>
